<mxfile host="Electron" modified="2024-12-01T02:06:04.918Z" agent="Mozilla/5.0 (Windows NT 10.0; Win64; x64) AppleWebKit/537.36 (KHTML, like Gecko) draw.io/24.5.3 Chrome/124.0.6367.207 Electron/30.0.6 Safari/537.36" etag="IbyW6vclmbjuEVMXmbnB" version="24.5.3" type="device">
  <diagram name="PÃ¡gina-1" id="UmUmTDYOOsl8YegatywW">
    <mxGraphModel dx="1467" dy="873" grid="1" gridSize="10" guides="1" tooltips="1" connect="1" arrows="1" fold="1" page="1" pageScale="1" pageWidth="827" pageHeight="1169" math="0" shadow="0">
      <root>
        <mxCell id="0" />
        <mxCell id="1" parent="0" />
        <mxCell id="mhm8gVixVMm5tY4KFnyg-1" value="&lt;i&gt;Product&lt;/i&gt;" style="shape=table;startSize=30;container=1;collapsible=1;childLayout=tableLayout;fixedRows=1;rowLines=0;fontStyle=1;align=center;resizeLast=1;html=1;fontFamily=Mononoki Nerd Font;fillColor=#f8cecc;strokeColor=#b85450;" vertex="1" parent="1">
          <mxGeometry x="46" y="10" width="260.0000000000001" height="210" as="geometry" />
        </mxCell>
        <mxCell id="mhm8gVixVMm5tY4KFnyg-2" value="" style="shape=tableRow;horizontal=0;startSize=0;swimlaneHead=0;swimlaneBody=0;fillColor=none;collapsible=0;dropTarget=0;points=[[0,0.5],[1,0.5]];portConstraint=eastwest;top=0;left=0;right=0;bottom=1;fontFamily=Mononoki Nerd Font;" vertex="1" parent="mhm8gVixVMm5tY4KFnyg-1">
          <mxGeometry y="30" width="260.0000000000001" height="30" as="geometry" />
        </mxCell>
        <mxCell id="mhm8gVixVMm5tY4KFnyg-3" value="PK" style="shape=partialRectangle;connectable=0;fillColor=none;top=0;left=0;bottom=0;right=0;fontStyle=1;overflow=hidden;whiteSpace=wrap;html=1;fontFamily=Mononoki Nerd Font;" vertex="1" parent="mhm8gVixVMm5tY4KFnyg-2">
          <mxGeometry width="80.00000000000011" height="30" as="geometry">
            <mxRectangle width="80.00000000000011" height="30" as="alternateBounds" />
          </mxGeometry>
        </mxCell>
        <mxCell id="mhm8gVixVMm5tY4KFnyg-4" value="&lt;i&gt;Id&lt;/i&gt;" style="shape=partialRectangle;connectable=0;fillColor=none;top=0;left=0;bottom=0;right=0;align=left;spacingLeft=6;fontStyle=5;overflow=hidden;whiteSpace=wrap;html=1;fontFamily=Mononoki Nerd Font;" vertex="1" parent="mhm8gVixVMm5tY4KFnyg-2">
          <mxGeometry x="80.00000000000011" width="180" height="30" as="geometry">
            <mxRectangle width="180" height="30" as="alternateBounds" />
          </mxGeometry>
        </mxCell>
        <mxCell id="mhm8gVixVMm5tY4KFnyg-5" value="" style="shape=tableRow;horizontal=0;startSize=0;swimlaneHead=0;swimlaneBody=0;fillColor=none;collapsible=0;dropTarget=0;points=[[0,0.5],[1,0.5]];portConstraint=eastwest;top=0;left=0;right=0;bottom=0;fontFamily=Mononoki Nerd Font;" vertex="1" parent="mhm8gVixVMm5tY4KFnyg-1">
          <mxGeometry y="60" width="260.0000000000001" height="30" as="geometry" />
        </mxCell>
        <mxCell id="mhm8gVixVMm5tY4KFnyg-6" value="string" style="shape=partialRectangle;connectable=0;fillColor=none;top=0;left=0;bottom=0;right=0;editable=1;overflow=hidden;whiteSpace=wrap;html=1;fontFamily=Mononoki Nerd Font;" vertex="1" parent="mhm8gVixVMm5tY4KFnyg-5">
          <mxGeometry width="80.00000000000011" height="30" as="geometry">
            <mxRectangle width="80.00000000000011" height="30" as="alternateBounds" />
          </mxGeometry>
        </mxCell>
        <mxCell id="mhm8gVixVMm5tY4KFnyg-7" value="ProductName" style="shape=partialRectangle;connectable=0;fillColor=none;top=0;left=0;bottom=0;right=0;align=left;spacingLeft=6;overflow=hidden;whiteSpace=wrap;html=1;fontFamily=Mononoki Nerd Font;" vertex="1" parent="mhm8gVixVMm5tY4KFnyg-5">
          <mxGeometry x="80.00000000000011" width="180" height="30" as="geometry">
            <mxRectangle width="180" height="30" as="alternateBounds" />
          </mxGeometry>
        </mxCell>
        <mxCell id="mhm8gVixVMm5tY4KFnyg-8" value="" style="shape=tableRow;horizontal=0;startSize=0;swimlaneHead=0;swimlaneBody=0;fillColor=none;collapsible=0;dropTarget=0;points=[[0,0.5],[1,0.5]];portConstraint=eastwest;top=0;left=0;right=0;bottom=0;fontFamily=Mononoki Nerd Font;" vertex="1" parent="mhm8gVixVMm5tY4KFnyg-1">
          <mxGeometry y="90" width="260.0000000000001" height="30" as="geometry" />
        </mxCell>
        <mxCell id="mhm8gVixVMm5tY4KFnyg-9" value="decimal" style="shape=partialRectangle;connectable=0;fillColor=none;top=0;left=0;bottom=0;right=0;editable=1;overflow=hidden;whiteSpace=wrap;html=1;fontFamily=Mononoki Nerd Font;" vertex="1" parent="mhm8gVixVMm5tY4KFnyg-8">
          <mxGeometry width="80.00000000000011" height="30" as="geometry">
            <mxRectangle width="80.00000000000011" height="30" as="alternateBounds" />
          </mxGeometry>
        </mxCell>
        <mxCell id="mhm8gVixVMm5tY4KFnyg-10" value="Price" style="shape=partialRectangle;connectable=0;fillColor=none;top=0;left=0;bottom=0;right=0;align=left;spacingLeft=6;overflow=hidden;whiteSpace=wrap;html=1;fontFamily=Mononoki Nerd Font;" vertex="1" parent="mhm8gVixVMm5tY4KFnyg-8">
          <mxGeometry x="80.00000000000011" width="180" height="30" as="geometry">
            <mxRectangle width="180" height="30" as="alternateBounds" />
          </mxGeometry>
        </mxCell>
        <mxCell id="mhm8gVixVMm5tY4KFnyg-11" value="" style="shape=tableRow;horizontal=0;startSize=0;swimlaneHead=0;swimlaneBody=0;fillColor=none;collapsible=0;dropTarget=0;points=[[0,0.5],[1,0.5]];portConstraint=eastwest;top=0;left=0;right=0;bottom=0;fontFamily=Mononoki Nerd Font;" vertex="1" parent="mhm8gVixVMm5tY4KFnyg-1">
          <mxGeometry y="120" width="260.0000000000001" height="30" as="geometry" />
        </mxCell>
        <mxCell id="mhm8gVixVMm5tY4KFnyg-12" value="string" style="shape=partialRectangle;connectable=0;fillColor=none;top=0;left=0;bottom=0;right=0;editable=1;overflow=hidden;whiteSpace=wrap;html=1;fontFamily=Mononoki Nerd Font;" vertex="1" parent="mhm8gVixVMm5tY4KFnyg-11">
          <mxGeometry width="80.00000000000011" height="30" as="geometry">
            <mxRectangle width="80.00000000000011" height="30" as="alternateBounds" />
          </mxGeometry>
        </mxCell>
        <mxCell id="mhm8gVixVMm5tY4KFnyg-13" value="ProductDescription" style="shape=partialRectangle;connectable=0;fillColor=none;top=0;left=0;bottom=0;right=0;align=left;spacingLeft=6;overflow=hidden;whiteSpace=wrap;html=1;fontFamily=Mononoki Nerd Font;" vertex="1" parent="mhm8gVixVMm5tY4KFnyg-11">
          <mxGeometry x="80.00000000000011" width="180" height="30" as="geometry">
            <mxRectangle width="180" height="30" as="alternateBounds" />
          </mxGeometry>
        </mxCell>
        <mxCell id="mhm8gVixVMm5tY4KFnyg-23" style="shape=tableRow;horizontal=0;startSize=0;swimlaneHead=0;swimlaneBody=0;fillColor=none;collapsible=0;dropTarget=0;points=[[0,0.5],[1,0.5]];portConstraint=eastwest;top=0;left=0;right=0;bottom=0;fontFamily=Mononoki Nerd Font;" vertex="1" parent="mhm8gVixVMm5tY4KFnyg-1">
          <mxGeometry y="150" width="260.0000000000001" height="30" as="geometry" />
        </mxCell>
        <mxCell id="mhm8gVixVMm5tY4KFnyg-24" value="int" style="shape=partialRectangle;connectable=0;fillColor=none;top=0;left=0;bottom=0;right=0;editable=1;overflow=hidden;whiteSpace=wrap;html=1;fontFamily=Mononoki Nerd Font;" vertex="1" parent="mhm8gVixVMm5tY4KFnyg-23">
          <mxGeometry width="80.00000000000011" height="30" as="geometry">
            <mxRectangle width="80.00000000000011" height="30" as="alternateBounds" />
          </mxGeometry>
        </mxCell>
        <mxCell id="mhm8gVixVMm5tY4KFnyg-25" value="Stock" style="shape=partialRectangle;connectable=0;fillColor=none;top=0;left=0;bottom=0;right=0;align=left;spacingLeft=6;overflow=hidden;whiteSpace=wrap;html=1;fontFamily=Mononoki Nerd Font;" vertex="1" parent="mhm8gVixVMm5tY4KFnyg-23">
          <mxGeometry x="80.00000000000011" width="180" height="30" as="geometry">
            <mxRectangle width="180" height="30" as="alternateBounds" />
          </mxGeometry>
        </mxCell>
        <mxCell id="mhm8gVixVMm5tY4KFnyg-20" style="shape=tableRow;horizontal=0;startSize=0;swimlaneHead=0;swimlaneBody=0;fillColor=none;collapsible=0;dropTarget=0;points=[[0,0.5],[1,0.5]];portConstraint=eastwest;top=0;left=0;right=0;bottom=0;fontFamily=Mononoki Nerd Font;" vertex="1" parent="mhm8gVixVMm5tY4KFnyg-1">
          <mxGeometry y="180" width="260.0000000000001" height="30" as="geometry" />
        </mxCell>
        <mxCell id="mhm8gVixVMm5tY4KFnyg-21" value="&lt;b&gt;FK&lt;/b&gt;" style="shape=partialRectangle;connectable=0;fillColor=none;top=0;left=0;bottom=0;right=0;editable=1;overflow=hidden;whiteSpace=wrap;html=1;fontFamily=Mononoki Nerd Font;" vertex="1" parent="mhm8gVixVMm5tY4KFnyg-20">
          <mxGeometry width="80.00000000000011" height="30" as="geometry">
            <mxRectangle width="80.00000000000011" height="30" as="alternateBounds" />
          </mxGeometry>
        </mxCell>
        <mxCell id="mhm8gVixVMm5tY4KFnyg-22" value="&lt;i&gt;&lt;u&gt;CategoryId&lt;/u&gt;&lt;/i&gt;" style="shape=partialRectangle;connectable=0;fillColor=none;top=0;left=0;bottom=0;right=0;align=left;spacingLeft=6;overflow=hidden;whiteSpace=wrap;html=1;fontFamily=Mononoki Nerd Font;" vertex="1" parent="mhm8gVixVMm5tY4KFnyg-20">
          <mxGeometry x="80.00000000000011" width="180" height="30" as="geometry">
            <mxRectangle width="180" height="30" as="alternateBounds" />
          </mxGeometry>
        </mxCell>
        <mxCell id="mhm8gVixVMm5tY4KFnyg-26" value="&lt;i&gt;User&lt;/i&gt;" style="shape=table;startSize=30;container=1;collapsible=1;childLayout=tableLayout;fixedRows=1;rowLines=0;fontStyle=1;align=center;resizeLast=1;html=1;fontFamily=Mononoki Nerd Font;fillColor=#bac8d3;strokeColor=#23445d;" vertex="1" parent="1">
          <mxGeometry x="386" y="250" width="260.0000000000001" height="210" as="geometry" />
        </mxCell>
        <mxCell id="mhm8gVixVMm5tY4KFnyg-27" value="" style="shape=tableRow;horizontal=0;startSize=0;swimlaneHead=0;swimlaneBody=0;fillColor=none;collapsible=0;dropTarget=0;points=[[0,0.5],[1,0.5]];portConstraint=eastwest;top=0;left=0;right=0;bottom=1;fontFamily=Mononoki Nerd Font;" vertex="1" parent="mhm8gVixVMm5tY4KFnyg-26">
          <mxGeometry y="30" width="260.0000000000001" height="30" as="geometry" />
        </mxCell>
        <mxCell id="mhm8gVixVMm5tY4KFnyg-28" value="PK" style="shape=partialRectangle;connectable=0;fillColor=none;top=0;left=0;bottom=0;right=0;fontStyle=1;overflow=hidden;whiteSpace=wrap;html=1;fontFamily=Mononoki Nerd Font;" vertex="1" parent="mhm8gVixVMm5tY4KFnyg-27">
          <mxGeometry width="80.00000000000011" height="30" as="geometry">
            <mxRectangle width="80.00000000000011" height="30" as="alternateBounds" />
          </mxGeometry>
        </mxCell>
        <mxCell id="mhm8gVixVMm5tY4KFnyg-29" value="&lt;i&gt;Id&lt;/i&gt;" style="shape=partialRectangle;connectable=0;fillColor=none;top=0;left=0;bottom=0;right=0;align=left;spacingLeft=6;fontStyle=5;overflow=hidden;whiteSpace=wrap;html=1;fontFamily=Mononoki Nerd Font;" vertex="1" parent="mhm8gVixVMm5tY4KFnyg-27">
          <mxGeometry x="80.00000000000011" width="180" height="30" as="geometry">
            <mxRectangle width="180" height="30" as="alternateBounds" />
          </mxGeometry>
        </mxCell>
        <mxCell id="mhm8gVixVMm5tY4KFnyg-30" value="" style="shape=tableRow;horizontal=0;startSize=0;swimlaneHead=0;swimlaneBody=0;fillColor=none;collapsible=0;dropTarget=0;points=[[0,0.5],[1,0.5]];portConstraint=eastwest;top=0;left=0;right=0;bottom=0;fontFamily=Mononoki Nerd Font;" vertex="1" parent="mhm8gVixVMm5tY4KFnyg-26">
          <mxGeometry y="60" width="260.0000000000001" height="30" as="geometry" />
        </mxCell>
        <mxCell id="mhm8gVixVMm5tY4KFnyg-31" value="string" style="shape=partialRectangle;connectable=0;fillColor=none;top=0;left=0;bottom=0;right=0;editable=1;overflow=hidden;whiteSpace=wrap;html=1;fontFamily=Mononoki Nerd Font;" vertex="1" parent="mhm8gVixVMm5tY4KFnyg-30">
          <mxGeometry width="80.00000000000011" height="30" as="geometry">
            <mxRectangle width="80.00000000000011" height="30" as="alternateBounds" />
          </mxGeometry>
        </mxCell>
        <mxCell id="mhm8gVixVMm5tY4KFnyg-32" value="Name" style="shape=partialRectangle;connectable=0;fillColor=none;top=0;left=0;bottom=0;right=0;align=left;spacingLeft=6;overflow=hidden;whiteSpace=wrap;html=1;fontFamily=Mononoki Nerd Font;" vertex="1" parent="mhm8gVixVMm5tY4KFnyg-30">
          <mxGeometry x="80.00000000000011" width="180" height="30" as="geometry">
            <mxRectangle width="180" height="30" as="alternateBounds" />
          </mxGeometry>
        </mxCell>
        <mxCell id="mhm8gVixVMm5tY4KFnyg-33" value="" style="shape=tableRow;horizontal=0;startSize=0;swimlaneHead=0;swimlaneBody=0;fillColor=none;collapsible=0;dropTarget=0;points=[[0,0.5],[1,0.5]];portConstraint=eastwest;top=0;left=0;right=0;bottom=0;fontFamily=Mononoki Nerd Font;" vertex="1" parent="mhm8gVixVMm5tY4KFnyg-26">
          <mxGeometry y="90" width="260.0000000000001" height="30" as="geometry" />
        </mxCell>
        <mxCell id="mhm8gVixVMm5tY4KFnyg-34" value="string" style="shape=partialRectangle;connectable=0;fillColor=none;top=0;left=0;bottom=0;right=0;editable=1;overflow=hidden;whiteSpace=wrap;html=1;fontFamily=Mononoki Nerd Font;" vertex="1" parent="mhm8gVixVMm5tY4KFnyg-33">
          <mxGeometry width="80.00000000000011" height="30" as="geometry">
            <mxRectangle width="80.00000000000011" height="30" as="alternateBounds" />
          </mxGeometry>
        </mxCell>
        <mxCell id="mhm8gVixVMm5tY4KFnyg-35" value="Password" style="shape=partialRectangle;connectable=0;fillColor=none;top=0;left=0;bottom=0;right=0;align=left;spacingLeft=6;overflow=hidden;whiteSpace=wrap;html=1;fontFamily=Mononoki Nerd Font;" vertex="1" parent="mhm8gVixVMm5tY4KFnyg-33">
          <mxGeometry x="80.00000000000011" width="180" height="30" as="geometry">
            <mxRectangle width="180" height="30" as="alternateBounds" />
          </mxGeometry>
        </mxCell>
        <mxCell id="mhm8gVixVMm5tY4KFnyg-36" value="" style="shape=tableRow;horizontal=0;startSize=0;swimlaneHead=0;swimlaneBody=0;fillColor=none;collapsible=0;dropTarget=0;points=[[0,0.5],[1,0.5]];portConstraint=eastwest;top=0;left=0;right=0;bottom=0;fontFamily=Mononoki Nerd Font;" vertex="1" parent="mhm8gVixVMm5tY4KFnyg-26">
          <mxGeometry y="120" width="260.0000000000001" height="30" as="geometry" />
        </mxCell>
        <mxCell id="mhm8gVixVMm5tY4KFnyg-37" value="string" style="shape=partialRectangle;connectable=0;fillColor=none;top=0;left=0;bottom=0;right=0;editable=1;overflow=hidden;whiteSpace=wrap;html=1;fontFamily=Mononoki Nerd Font;" vertex="1" parent="mhm8gVixVMm5tY4KFnyg-36">
          <mxGeometry width="80.00000000000011" height="30" as="geometry">
            <mxRectangle width="80.00000000000011" height="30" as="alternateBounds" />
          </mxGeometry>
        </mxCell>
        <mxCell id="mhm8gVixVMm5tY4KFnyg-38" value="Email" style="shape=partialRectangle;connectable=0;fillColor=none;top=0;left=0;bottom=0;right=0;align=left;spacingLeft=6;overflow=hidden;whiteSpace=wrap;html=1;fontFamily=Mononoki Nerd Font;" vertex="1" parent="mhm8gVixVMm5tY4KFnyg-36">
          <mxGeometry x="80.00000000000011" width="180" height="30" as="geometry">
            <mxRectangle width="180" height="30" as="alternateBounds" />
          </mxGeometry>
        </mxCell>
        <mxCell id="mhm8gVixVMm5tY4KFnyg-39" style="shape=tableRow;horizontal=0;startSize=0;swimlaneHead=0;swimlaneBody=0;fillColor=none;collapsible=0;dropTarget=0;points=[[0,0.5],[1,0.5]];portConstraint=eastwest;top=0;left=0;right=0;bottom=0;fontFamily=Mononoki Nerd Font;" vertex="1" parent="mhm8gVixVMm5tY4KFnyg-26">
          <mxGeometry y="150" width="260.0000000000001" height="30" as="geometry" />
        </mxCell>
        <mxCell id="mhm8gVixVMm5tY4KFnyg-40" value="string" style="shape=partialRectangle;connectable=0;fillColor=none;top=0;left=0;bottom=0;right=0;editable=1;overflow=hidden;whiteSpace=wrap;html=1;fontFamily=Mononoki Nerd Font;" vertex="1" parent="mhm8gVixVMm5tY4KFnyg-39">
          <mxGeometry width="80.00000000000011" height="30" as="geometry">
            <mxRectangle width="80.00000000000011" height="30" as="alternateBounds" />
          </mxGeometry>
        </mxCell>
        <mxCell id="mhm8gVixVMm5tY4KFnyg-41" value="Role" style="shape=partialRectangle;connectable=0;fillColor=none;top=0;left=0;bottom=0;right=0;align=left;spacingLeft=6;overflow=hidden;whiteSpace=wrap;html=1;fontFamily=Mononoki Nerd Font;" vertex="1" parent="mhm8gVixVMm5tY4KFnyg-39">
          <mxGeometry x="80.00000000000011" width="180" height="30" as="geometry">
            <mxRectangle width="180" height="30" as="alternateBounds" />
          </mxGeometry>
        </mxCell>
        <mxCell id="mhm8gVixVMm5tY4KFnyg-42" style="shape=tableRow;horizontal=0;startSize=0;swimlaneHead=0;swimlaneBody=0;fillColor=none;collapsible=0;dropTarget=0;points=[[0,0.5],[1,0.5]];portConstraint=eastwest;top=0;left=0;right=0;bottom=0;fontFamily=Mononoki Nerd Font;" vertex="1" parent="mhm8gVixVMm5tY4KFnyg-26">
          <mxGeometry y="180" width="260.0000000000001" height="30" as="geometry" />
        </mxCell>
        <mxCell id="mhm8gVixVMm5tY4KFnyg-43" value="&lt;b&gt;FK&lt;/b&gt;" style="shape=partialRectangle;connectable=0;fillColor=none;top=0;left=0;bottom=0;right=0;editable=1;overflow=hidden;whiteSpace=wrap;html=1;fontFamily=Mononoki Nerd Font;" vertex="1" parent="mhm8gVixVMm5tY4KFnyg-42">
          <mxGeometry width="80.00000000000011" height="30" as="geometry">
            <mxRectangle width="80.00000000000011" height="30" as="alternateBounds" />
          </mxGeometry>
        </mxCell>
        <mxCell id="mhm8gVixVMm5tY4KFnyg-44" value="&lt;i&gt;&lt;u&gt;CategoryId&lt;/u&gt;&lt;/i&gt;" style="shape=partialRectangle;connectable=0;fillColor=none;top=0;left=0;bottom=0;right=0;align=left;spacingLeft=6;overflow=hidden;whiteSpace=wrap;html=1;fontFamily=Mononoki Nerd Font;" vertex="1" parent="mhm8gVixVMm5tY4KFnyg-42">
          <mxGeometry x="80.00000000000011" width="180" height="30" as="geometry">
            <mxRectangle width="180" height="30" as="alternateBounds" />
          </mxGeometry>
        </mxCell>
        <mxCell id="mhm8gVixVMm5tY4KFnyg-45" value="&lt;i&gt;Category&lt;/i&gt;" style="shape=table;startSize=30;container=1;collapsible=1;childLayout=tableLayout;fixedRows=1;rowLines=0;fontStyle=1;align=center;resizeLast=1;html=1;fontFamily=Mononoki Nerd Font;fillColor=#bac8d3;strokeColor=#23445d;" vertex="1" parent="1">
          <mxGeometry x="46" y="260" width="260.0000000000001" height="90" as="geometry" />
        </mxCell>
        <mxCell id="mhm8gVixVMm5tY4KFnyg-46" value="" style="shape=tableRow;horizontal=0;startSize=0;swimlaneHead=0;swimlaneBody=0;fillColor=none;collapsible=0;dropTarget=0;points=[[0,0.5],[1,0.5]];portConstraint=eastwest;top=0;left=0;right=0;bottom=1;fontFamily=Mononoki Nerd Font;" vertex="1" parent="mhm8gVixVMm5tY4KFnyg-45">
          <mxGeometry y="30" width="260.0000000000001" height="30" as="geometry" />
        </mxCell>
        <mxCell id="mhm8gVixVMm5tY4KFnyg-47" value="PK" style="shape=partialRectangle;connectable=0;fillColor=none;top=0;left=0;bottom=0;right=0;fontStyle=1;overflow=hidden;whiteSpace=wrap;html=1;fontFamily=Mononoki Nerd Font;" vertex="1" parent="mhm8gVixVMm5tY4KFnyg-46">
          <mxGeometry width="80.00000000000011" height="30" as="geometry">
            <mxRectangle width="80.00000000000011" height="30" as="alternateBounds" />
          </mxGeometry>
        </mxCell>
        <mxCell id="mhm8gVixVMm5tY4KFnyg-48" value="&lt;i&gt;Id&lt;/i&gt;" style="shape=partialRectangle;connectable=0;fillColor=none;top=0;left=0;bottom=0;right=0;align=left;spacingLeft=6;fontStyle=5;overflow=hidden;whiteSpace=wrap;html=1;fontFamily=Mononoki Nerd Font;" vertex="1" parent="mhm8gVixVMm5tY4KFnyg-46">
          <mxGeometry x="80.00000000000011" width="180" height="30" as="geometry">
            <mxRectangle width="180" height="30" as="alternateBounds" />
          </mxGeometry>
        </mxCell>
        <mxCell id="mhm8gVixVMm5tY4KFnyg-49" value="" style="shape=tableRow;horizontal=0;startSize=0;swimlaneHead=0;swimlaneBody=0;fillColor=none;collapsible=0;dropTarget=0;points=[[0,0.5],[1,0.5]];portConstraint=eastwest;top=0;left=0;right=0;bottom=0;fontFamily=Mononoki Nerd Font;" vertex="1" parent="mhm8gVixVMm5tY4KFnyg-45">
          <mxGeometry y="60" width="260.0000000000001" height="30" as="geometry" />
        </mxCell>
        <mxCell id="mhm8gVixVMm5tY4KFnyg-50" value="string" style="shape=partialRectangle;connectable=0;fillColor=none;top=0;left=0;bottom=0;right=0;editable=1;overflow=hidden;whiteSpace=wrap;html=1;fontFamily=Mononoki Nerd Font;" vertex="1" parent="mhm8gVixVMm5tY4KFnyg-49">
          <mxGeometry width="80.00000000000011" height="30" as="geometry">
            <mxRectangle width="80.00000000000011" height="30" as="alternateBounds" />
          </mxGeometry>
        </mxCell>
        <mxCell id="mhm8gVixVMm5tY4KFnyg-51" value="Name" style="shape=partialRectangle;connectable=0;fillColor=none;top=0;left=0;bottom=0;right=0;align=left;spacingLeft=6;overflow=hidden;whiteSpace=wrap;html=1;fontFamily=Mononoki Nerd Font;" vertex="1" parent="mhm8gVixVMm5tY4KFnyg-49">
          <mxGeometry x="80.00000000000011" width="180" height="30" as="geometry">
            <mxRectangle width="180" height="30" as="alternateBounds" />
          </mxGeometry>
        </mxCell>
        <mxCell id="mhm8gVixVMm5tY4KFnyg-64" value="&lt;i&gt;Order&lt;/i&gt;" style="shape=table;startSize=30;container=1;collapsible=1;childLayout=tableLayout;fixedRows=1;rowLines=0;fontStyle=1;align=center;resizeLast=1;html=1;fontFamily=Mononoki Nerd Font;fillColor=#bac8d3;strokeColor=#23445d;" vertex="1" parent="1">
          <mxGeometry x="726" y="250" width="260.0000000000001" height="180" as="geometry" />
        </mxCell>
        <mxCell id="mhm8gVixVMm5tY4KFnyg-65" value="" style="shape=tableRow;horizontal=0;startSize=0;swimlaneHead=0;swimlaneBody=0;fillColor=none;collapsible=0;dropTarget=0;points=[[0,0.5],[1,0.5]];portConstraint=eastwest;top=0;left=0;right=0;bottom=1;fontFamily=Mononoki Nerd Font;" vertex="1" parent="mhm8gVixVMm5tY4KFnyg-64">
          <mxGeometry y="30" width="260.0000000000001" height="30" as="geometry" />
        </mxCell>
        <mxCell id="mhm8gVixVMm5tY4KFnyg-66" value="PK" style="shape=partialRectangle;connectable=0;fillColor=none;top=0;left=0;bottom=0;right=0;fontStyle=1;overflow=hidden;whiteSpace=wrap;html=1;fontFamily=Mononoki Nerd Font;" vertex="1" parent="mhm8gVixVMm5tY4KFnyg-65">
          <mxGeometry width="80.00000000000011" height="30" as="geometry">
            <mxRectangle width="80.00000000000011" height="30" as="alternateBounds" />
          </mxGeometry>
        </mxCell>
        <mxCell id="mhm8gVixVMm5tY4KFnyg-67" value="&lt;i&gt;Id&lt;/i&gt;" style="shape=partialRectangle;connectable=0;fillColor=none;top=0;left=0;bottom=0;right=0;align=left;spacingLeft=6;fontStyle=5;overflow=hidden;whiteSpace=wrap;html=1;fontFamily=Mononoki Nerd Font;" vertex="1" parent="mhm8gVixVMm5tY4KFnyg-65">
          <mxGeometry x="80.00000000000011" width="180" height="30" as="geometry">
            <mxRectangle width="180" height="30" as="alternateBounds" />
          </mxGeometry>
        </mxCell>
        <mxCell id="mhm8gVixVMm5tY4KFnyg-68" value="" style="shape=tableRow;horizontal=0;startSize=0;swimlaneHead=0;swimlaneBody=0;fillColor=none;collapsible=0;dropTarget=0;points=[[0,0.5],[1,0.5]];portConstraint=eastwest;top=0;left=0;right=0;bottom=0;fontFamily=Mononoki Nerd Font;" vertex="1" parent="mhm8gVixVMm5tY4KFnyg-64">
          <mxGeometry y="60" width="260.0000000000001" height="30" as="geometry" />
        </mxCell>
        <mxCell id="mhm8gVixVMm5tY4KFnyg-69" value="DateTime" style="shape=partialRectangle;connectable=0;fillColor=none;top=0;left=0;bottom=0;right=0;editable=1;overflow=hidden;whiteSpace=wrap;html=1;fontFamily=Mononoki Nerd Font;" vertex="1" parent="mhm8gVixVMm5tY4KFnyg-68">
          <mxGeometry width="80.00000000000011" height="30" as="geometry">
            <mxRectangle width="80.00000000000011" height="30" as="alternateBounds" />
          </mxGeometry>
        </mxCell>
        <mxCell id="mhm8gVixVMm5tY4KFnyg-70" value="OrderDate" style="shape=partialRectangle;connectable=0;fillColor=none;top=0;left=0;bottom=0;right=0;align=left;spacingLeft=6;overflow=hidden;whiteSpace=wrap;html=1;fontFamily=Mononoki Nerd Font;" vertex="1" parent="mhm8gVixVMm5tY4KFnyg-68">
          <mxGeometry x="80.00000000000011" width="180" height="30" as="geometry">
            <mxRectangle width="180" height="30" as="alternateBounds" />
          </mxGeometry>
        </mxCell>
        <mxCell id="mhm8gVixVMm5tY4KFnyg-71" value="" style="shape=tableRow;horizontal=0;startSize=0;swimlaneHead=0;swimlaneBody=0;fillColor=none;collapsible=0;dropTarget=0;points=[[0,0.5],[1,0.5]];portConstraint=eastwest;top=0;left=0;right=0;bottom=0;fontFamily=Mononoki Nerd Font;" vertex="1" parent="mhm8gVixVMm5tY4KFnyg-64">
          <mxGeometry y="90" width="260.0000000000001" height="30" as="geometry" />
        </mxCell>
        <mxCell id="mhm8gVixVMm5tY4KFnyg-72" value="decimal" style="shape=partialRectangle;connectable=0;fillColor=none;top=0;left=0;bottom=0;right=0;editable=1;overflow=hidden;whiteSpace=wrap;html=1;fontFamily=Mononoki Nerd Font;" vertex="1" parent="mhm8gVixVMm5tY4KFnyg-71">
          <mxGeometry width="80.00000000000011" height="30" as="geometry">
            <mxRectangle width="80.00000000000011" height="30" as="alternateBounds" />
          </mxGeometry>
        </mxCell>
        <mxCell id="mhm8gVixVMm5tY4KFnyg-73" value="TotalAmount" style="shape=partialRectangle;connectable=0;fillColor=none;top=0;left=0;bottom=0;right=0;align=left;spacingLeft=6;overflow=hidden;whiteSpace=wrap;html=1;fontFamily=Mononoki Nerd Font;" vertex="1" parent="mhm8gVixVMm5tY4KFnyg-71">
          <mxGeometry x="80.00000000000011" width="180" height="30" as="geometry">
            <mxRectangle width="180" height="30" as="alternateBounds" />
          </mxGeometry>
        </mxCell>
        <mxCell id="mhm8gVixVMm5tY4KFnyg-74" value="" style="shape=tableRow;horizontal=0;startSize=0;swimlaneHead=0;swimlaneBody=0;fillColor=none;collapsible=0;dropTarget=0;points=[[0,0.5],[1,0.5]];portConstraint=eastwest;top=0;left=0;right=0;bottom=0;fontFamily=Mononoki Nerd Font;" vertex="1" parent="mhm8gVixVMm5tY4KFnyg-64">
          <mxGeometry y="120" width="260.0000000000001" height="30" as="geometry" />
        </mxCell>
        <mxCell id="mhm8gVixVMm5tY4KFnyg-75" value="string" style="shape=partialRectangle;connectable=0;fillColor=none;top=0;left=0;bottom=0;right=0;editable=1;overflow=hidden;whiteSpace=wrap;html=1;fontFamily=Mononoki Nerd Font;" vertex="1" parent="mhm8gVixVMm5tY4KFnyg-74">
          <mxGeometry width="80.00000000000011" height="30" as="geometry">
            <mxRectangle width="80.00000000000011" height="30" as="alternateBounds" />
          </mxGeometry>
        </mxCell>
        <mxCell id="mhm8gVixVMm5tY4KFnyg-76" value="Status" style="shape=partialRectangle;connectable=0;fillColor=none;top=0;left=0;bottom=0;right=0;align=left;spacingLeft=6;overflow=hidden;whiteSpace=wrap;html=1;fontFamily=Mononoki Nerd Font;" vertex="1" parent="mhm8gVixVMm5tY4KFnyg-74">
          <mxGeometry x="80.00000000000011" width="180" height="30" as="geometry">
            <mxRectangle width="180" height="30" as="alternateBounds" />
          </mxGeometry>
        </mxCell>
        <mxCell id="mhm8gVixVMm5tY4KFnyg-80" style="shape=tableRow;horizontal=0;startSize=0;swimlaneHead=0;swimlaneBody=0;fillColor=none;collapsible=0;dropTarget=0;points=[[0,0.5],[1,0.5]];portConstraint=eastwest;top=0;left=0;right=0;bottom=0;fontFamily=Mononoki Nerd Font;" vertex="1" parent="mhm8gVixVMm5tY4KFnyg-64">
          <mxGeometry y="150" width="260.0000000000001" height="30" as="geometry" />
        </mxCell>
        <mxCell id="mhm8gVixVMm5tY4KFnyg-81" value="&lt;b&gt;FK&lt;/b&gt;" style="shape=partialRectangle;connectable=0;fillColor=none;top=0;left=0;bottom=0;right=0;editable=1;overflow=hidden;whiteSpace=wrap;html=1;fontFamily=Mononoki Nerd Font;" vertex="1" parent="mhm8gVixVMm5tY4KFnyg-80">
          <mxGeometry width="80.00000000000011" height="30" as="geometry">
            <mxRectangle width="80.00000000000011" height="30" as="alternateBounds" />
          </mxGeometry>
        </mxCell>
        <mxCell id="mhm8gVixVMm5tY4KFnyg-82" value="&lt;i&gt;&lt;u&gt;UserId&lt;/u&gt;&lt;/i&gt;" style="shape=partialRectangle;connectable=0;fillColor=none;top=0;left=0;bottom=0;right=0;align=left;spacingLeft=6;overflow=hidden;whiteSpace=wrap;html=1;fontFamily=Mononoki Nerd Font;" vertex="1" parent="mhm8gVixVMm5tY4KFnyg-80">
          <mxGeometry x="80.00000000000011" width="180" height="30" as="geometry">
            <mxRectangle width="180" height="30" as="alternateBounds" />
          </mxGeometry>
        </mxCell>
        <mxCell id="mhm8gVixVMm5tY4KFnyg-83" value="&lt;i&gt;OrderDetail&lt;/i&gt;" style="shape=table;startSize=30;container=1;collapsible=1;childLayout=tableLayout;fixedRows=1;rowLines=0;fontStyle=1;align=center;resizeLast=1;html=1;fontFamily=Mononoki Nerd Font;fillColor=#bac8d3;strokeColor=#23445d;" vertex="1" parent="1">
          <mxGeometry x="386" y="10" width="260.0000000000001" height="210" as="geometry" />
        </mxCell>
        <mxCell id="mhm8gVixVMm5tY4KFnyg-84" value="" style="shape=tableRow;horizontal=0;startSize=0;swimlaneHead=0;swimlaneBody=0;fillColor=none;collapsible=0;dropTarget=0;points=[[0,0.5],[1,0.5]];portConstraint=eastwest;top=0;left=0;right=0;bottom=1;fontFamily=Mononoki Nerd Font;" vertex="1" parent="mhm8gVixVMm5tY4KFnyg-83">
          <mxGeometry y="30" width="260.0000000000001" height="30" as="geometry" />
        </mxCell>
        <mxCell id="mhm8gVixVMm5tY4KFnyg-85" value="PK" style="shape=partialRectangle;connectable=0;fillColor=none;top=0;left=0;bottom=0;right=0;fontStyle=1;overflow=hidden;whiteSpace=wrap;html=1;fontFamily=Mononoki Nerd Font;" vertex="1" parent="mhm8gVixVMm5tY4KFnyg-84">
          <mxGeometry width="80.00000000000011" height="30" as="geometry">
            <mxRectangle width="80.00000000000011" height="30" as="alternateBounds" />
          </mxGeometry>
        </mxCell>
        <mxCell id="mhm8gVixVMm5tY4KFnyg-86" value="&lt;i&gt;Id&lt;/i&gt;" style="shape=partialRectangle;connectable=0;fillColor=none;top=0;left=0;bottom=0;right=0;align=left;spacingLeft=6;fontStyle=5;overflow=hidden;whiteSpace=wrap;html=1;fontFamily=Mononoki Nerd Font;" vertex="1" parent="mhm8gVixVMm5tY4KFnyg-84">
          <mxGeometry x="80.00000000000011" width="180" height="30" as="geometry">
            <mxRectangle width="180" height="30" as="alternateBounds" />
          </mxGeometry>
        </mxCell>
        <mxCell id="mhm8gVixVMm5tY4KFnyg-87" value="" style="shape=tableRow;horizontal=0;startSize=0;swimlaneHead=0;swimlaneBody=0;fillColor=none;collapsible=0;dropTarget=0;points=[[0,0.5],[1,0.5]];portConstraint=eastwest;top=0;left=0;right=0;bottom=0;fontFamily=Mononoki Nerd Font;" vertex="1" parent="mhm8gVixVMm5tY4KFnyg-83">
          <mxGeometry y="60" width="260.0000000000001" height="30" as="geometry" />
        </mxCell>
        <mxCell id="mhm8gVixVMm5tY4KFnyg-88" value="int" style="shape=partialRectangle;connectable=0;fillColor=none;top=0;left=0;bottom=0;right=0;editable=1;overflow=hidden;whiteSpace=wrap;html=1;fontFamily=Mononoki Nerd Font;" vertex="1" parent="mhm8gVixVMm5tY4KFnyg-87">
          <mxGeometry width="80.00000000000011" height="30" as="geometry">
            <mxRectangle width="80.00000000000011" height="30" as="alternateBounds" />
          </mxGeometry>
        </mxCell>
        <mxCell id="mhm8gVixVMm5tY4KFnyg-89" value="Quantity" style="shape=partialRectangle;connectable=0;fillColor=none;top=0;left=0;bottom=0;right=0;align=left;spacingLeft=6;overflow=hidden;whiteSpace=wrap;html=1;fontFamily=Mononoki Nerd Font;" vertex="1" parent="mhm8gVixVMm5tY4KFnyg-87">
          <mxGeometry x="80.00000000000011" width="180" height="30" as="geometry">
            <mxRectangle width="180" height="30" as="alternateBounds" />
          </mxGeometry>
        </mxCell>
        <mxCell id="mhm8gVixVMm5tY4KFnyg-90" value="" style="shape=tableRow;horizontal=0;startSize=0;swimlaneHead=0;swimlaneBody=0;fillColor=none;collapsible=0;dropTarget=0;points=[[0,0.5],[1,0.5]];portConstraint=eastwest;top=0;left=0;right=0;bottom=0;fontFamily=Mononoki Nerd Font;" vertex="1" parent="mhm8gVixVMm5tY4KFnyg-83">
          <mxGeometry y="90" width="260.0000000000001" height="30" as="geometry" />
        </mxCell>
        <mxCell id="mhm8gVixVMm5tY4KFnyg-91" value="decimal" style="shape=partialRectangle;connectable=0;fillColor=none;top=0;left=0;bottom=0;right=0;editable=1;overflow=hidden;whiteSpace=wrap;html=1;fontFamily=Mononoki Nerd Font;" vertex="1" parent="mhm8gVixVMm5tY4KFnyg-90">
          <mxGeometry width="80.00000000000011" height="30" as="geometry">
            <mxRectangle width="80.00000000000011" height="30" as="alternateBounds" />
          </mxGeometry>
        </mxCell>
        <mxCell id="mhm8gVixVMm5tY4KFnyg-92" value="Price" style="shape=partialRectangle;connectable=0;fillColor=none;top=0;left=0;bottom=0;right=0;align=left;spacingLeft=6;overflow=hidden;whiteSpace=wrap;html=1;fontFamily=Mononoki Nerd Font;" vertex="1" parent="mhm8gVixVMm5tY4KFnyg-90">
          <mxGeometry x="80.00000000000011" width="180" height="30" as="geometry">
            <mxRectangle width="180" height="30" as="alternateBounds" />
          </mxGeometry>
        </mxCell>
        <mxCell id="mhm8gVixVMm5tY4KFnyg-93" value="" style="shape=tableRow;horizontal=0;startSize=0;swimlaneHead=0;swimlaneBody=0;fillColor=none;collapsible=0;dropTarget=0;points=[[0,0.5],[1,0.5]];portConstraint=eastwest;top=0;left=0;right=0;bottom=0;fontFamily=Mononoki Nerd Font;" vertex="1" parent="mhm8gVixVMm5tY4KFnyg-83">
          <mxGeometry y="120" width="260.0000000000001" height="30" as="geometry" />
        </mxCell>
        <mxCell id="mhm8gVixVMm5tY4KFnyg-94" value="string" style="shape=partialRectangle;connectable=0;fillColor=none;top=0;left=0;bottom=0;right=0;editable=1;overflow=hidden;whiteSpace=wrap;html=1;fontFamily=Mononoki Nerd Font;" vertex="1" parent="mhm8gVixVMm5tY4KFnyg-93">
          <mxGeometry width="80.00000000000011" height="30" as="geometry">
            <mxRectangle width="80.00000000000011" height="30" as="alternateBounds" />
          </mxGeometry>
        </mxCell>
        <mxCell id="mhm8gVixVMm5tY4KFnyg-95" value="Status" style="shape=partialRectangle;connectable=0;fillColor=none;top=0;left=0;bottom=0;right=0;align=left;spacingLeft=6;overflow=hidden;whiteSpace=wrap;html=1;fontFamily=Mononoki Nerd Font;" vertex="1" parent="mhm8gVixVMm5tY4KFnyg-93">
          <mxGeometry x="80.00000000000011" width="180" height="30" as="geometry">
            <mxRectangle width="180" height="30" as="alternateBounds" />
          </mxGeometry>
        </mxCell>
        <mxCell id="mhm8gVixVMm5tY4KFnyg-96" style="shape=tableRow;horizontal=0;startSize=0;swimlaneHead=0;swimlaneBody=0;fillColor=none;collapsible=0;dropTarget=0;points=[[0,0.5],[1,0.5]];portConstraint=eastwest;top=0;left=0;right=0;bottom=0;fontFamily=Mononoki Nerd Font;" vertex="1" parent="mhm8gVixVMm5tY4KFnyg-83">
          <mxGeometry y="150" width="260.0000000000001" height="30" as="geometry" />
        </mxCell>
        <mxCell id="mhm8gVixVMm5tY4KFnyg-97" value="&lt;b&gt;FK&lt;/b&gt;" style="shape=partialRectangle;connectable=0;fillColor=none;top=0;left=0;bottom=0;right=0;editable=1;overflow=hidden;whiteSpace=wrap;html=1;fontFamily=Mononoki Nerd Font;" vertex="1" parent="mhm8gVixVMm5tY4KFnyg-96">
          <mxGeometry width="80.00000000000011" height="30" as="geometry">
            <mxRectangle width="80.00000000000011" height="30" as="alternateBounds" />
          </mxGeometry>
        </mxCell>
        <mxCell id="mhm8gVixVMm5tY4KFnyg-98" value="&lt;i&gt;&lt;u&gt;OrderId&lt;/u&gt;&lt;/i&gt;" style="shape=partialRectangle;connectable=0;fillColor=none;top=0;left=0;bottom=0;right=0;align=left;spacingLeft=6;overflow=hidden;whiteSpace=wrap;html=1;fontFamily=Mononoki Nerd Font;" vertex="1" parent="mhm8gVixVMm5tY4KFnyg-96">
          <mxGeometry x="80.00000000000011" width="180" height="30" as="geometry">
            <mxRectangle width="180" height="30" as="alternateBounds" />
          </mxGeometry>
        </mxCell>
        <mxCell id="mhm8gVixVMm5tY4KFnyg-99" style="shape=tableRow;horizontal=0;startSize=0;swimlaneHead=0;swimlaneBody=0;fillColor=none;collapsible=0;dropTarget=0;points=[[0,0.5],[1,0.5]];portConstraint=eastwest;top=0;left=0;right=0;bottom=0;fontFamily=Mononoki Nerd Font;" vertex="1" parent="mhm8gVixVMm5tY4KFnyg-83">
          <mxGeometry y="180" width="260.0000000000001" height="30" as="geometry" />
        </mxCell>
        <mxCell id="mhm8gVixVMm5tY4KFnyg-100" value="&lt;b&gt;FK&lt;/b&gt;" style="shape=partialRectangle;connectable=0;fillColor=none;top=0;left=0;bottom=0;right=0;editable=1;overflow=hidden;whiteSpace=wrap;html=1;fontFamily=Mononoki Nerd Font;" vertex="1" parent="mhm8gVixVMm5tY4KFnyg-99">
          <mxGeometry width="80.00000000000011" height="30" as="geometry">
            <mxRectangle width="80.00000000000011" height="30" as="alternateBounds" />
          </mxGeometry>
        </mxCell>
        <mxCell id="mhm8gVixVMm5tY4KFnyg-101" value="&lt;u style=&quot;&quot;&gt;&lt;i&gt;ProductId&lt;/i&gt;&lt;/u&gt;" style="shape=partialRectangle;connectable=0;fillColor=none;top=0;left=0;bottom=0;right=0;align=left;spacingLeft=6;overflow=hidden;whiteSpace=wrap;html=1;fontFamily=Mononoki Nerd Font;" vertex="1" parent="mhm8gVixVMm5tY4KFnyg-99">
          <mxGeometry x="80.00000000000011" width="180" height="30" as="geometry">
            <mxRectangle width="180" height="30" as="alternateBounds" />
          </mxGeometry>
        </mxCell>
        <mxCell id="mhm8gVixVMm5tY4KFnyg-102" value="&lt;i&gt;Payment&lt;/i&gt;" style="shape=table;startSize=30;container=1;collapsible=1;childLayout=tableLayout;fixedRows=1;rowLines=0;fontStyle=1;align=center;resizeLast=1;html=1;fontFamily=Mononoki Nerd Font;fillColor=#bac8d3;strokeColor=#23445d;" vertex="1" parent="1">
          <mxGeometry x="1066" y="250" width="260.0000000000001" height="180" as="geometry" />
        </mxCell>
        <mxCell id="mhm8gVixVMm5tY4KFnyg-103" value="" style="shape=tableRow;horizontal=0;startSize=0;swimlaneHead=0;swimlaneBody=0;fillColor=none;collapsible=0;dropTarget=0;points=[[0,0.5],[1,0.5]];portConstraint=eastwest;top=0;left=0;right=0;bottom=1;fontFamily=Mononoki Nerd Font;" vertex="1" parent="mhm8gVixVMm5tY4KFnyg-102">
          <mxGeometry y="30" width="260.0000000000001" height="30" as="geometry" />
        </mxCell>
        <mxCell id="mhm8gVixVMm5tY4KFnyg-104" value="PK" style="shape=partialRectangle;connectable=0;fillColor=none;top=0;left=0;bottom=0;right=0;fontStyle=1;overflow=hidden;whiteSpace=wrap;html=1;fontFamily=Mononoki Nerd Font;" vertex="1" parent="mhm8gVixVMm5tY4KFnyg-103">
          <mxGeometry width="80.00000000000011" height="30" as="geometry">
            <mxRectangle width="80.00000000000011" height="30" as="alternateBounds" />
          </mxGeometry>
        </mxCell>
        <mxCell id="mhm8gVixVMm5tY4KFnyg-105" value="&lt;i&gt;Id&lt;/i&gt;" style="shape=partialRectangle;connectable=0;fillColor=none;top=0;left=0;bottom=0;right=0;align=left;spacingLeft=6;fontStyle=5;overflow=hidden;whiteSpace=wrap;html=1;fontFamily=Mononoki Nerd Font;" vertex="1" parent="mhm8gVixVMm5tY4KFnyg-103">
          <mxGeometry x="80.00000000000011" width="180" height="30" as="geometry">
            <mxRectangle width="180" height="30" as="alternateBounds" />
          </mxGeometry>
        </mxCell>
        <mxCell id="mhm8gVixVMm5tY4KFnyg-106" value="" style="shape=tableRow;horizontal=0;startSize=0;swimlaneHead=0;swimlaneBody=0;fillColor=none;collapsible=0;dropTarget=0;points=[[0,0.5],[1,0.5]];portConstraint=eastwest;top=0;left=0;right=0;bottom=0;fontFamily=Mononoki Nerd Font;" vertex="1" parent="mhm8gVixVMm5tY4KFnyg-102">
          <mxGeometry y="60" width="260.0000000000001" height="30" as="geometry" />
        </mxCell>
        <mxCell id="mhm8gVixVMm5tY4KFnyg-107" value="DateTime" style="shape=partialRectangle;connectable=0;fillColor=none;top=0;left=0;bottom=0;right=0;editable=1;overflow=hidden;whiteSpace=wrap;html=1;fontFamily=Mononoki Nerd Font;" vertex="1" parent="mhm8gVixVMm5tY4KFnyg-106">
          <mxGeometry width="80.00000000000011" height="30" as="geometry">
            <mxRectangle width="80.00000000000011" height="30" as="alternateBounds" />
          </mxGeometry>
        </mxCell>
        <mxCell id="mhm8gVixVMm5tY4KFnyg-108" value="PaymentDate" style="shape=partialRectangle;connectable=0;fillColor=none;top=0;left=0;bottom=0;right=0;align=left;spacingLeft=6;overflow=hidden;whiteSpace=wrap;html=1;fontFamily=Mononoki Nerd Font;" vertex="1" parent="mhm8gVixVMm5tY4KFnyg-106">
          <mxGeometry x="80.00000000000011" width="180" height="30" as="geometry">
            <mxRectangle width="180" height="30" as="alternateBounds" />
          </mxGeometry>
        </mxCell>
        <mxCell id="mhm8gVixVMm5tY4KFnyg-109" value="" style="shape=tableRow;horizontal=0;startSize=0;swimlaneHead=0;swimlaneBody=0;fillColor=none;collapsible=0;dropTarget=0;points=[[0,0.5],[1,0.5]];portConstraint=eastwest;top=0;left=0;right=0;bottom=0;fontFamily=Mononoki Nerd Font;" vertex="1" parent="mhm8gVixVMm5tY4KFnyg-102">
          <mxGeometry y="90" width="260.0000000000001" height="30" as="geometry" />
        </mxCell>
        <mxCell id="mhm8gVixVMm5tY4KFnyg-110" value="decimal" style="shape=partialRectangle;connectable=0;fillColor=none;top=0;left=0;bottom=0;right=0;editable=1;overflow=hidden;whiteSpace=wrap;html=1;fontFamily=Mononoki Nerd Font;" vertex="1" parent="mhm8gVixVMm5tY4KFnyg-109">
          <mxGeometry width="80.00000000000011" height="30" as="geometry">
            <mxRectangle width="80.00000000000011" height="30" as="alternateBounds" />
          </mxGeometry>
        </mxCell>
        <mxCell id="mhm8gVixVMm5tY4KFnyg-111" value="Amount" style="shape=partialRectangle;connectable=0;fillColor=none;top=0;left=0;bottom=0;right=0;align=left;spacingLeft=6;overflow=hidden;whiteSpace=wrap;html=1;fontFamily=Mononoki Nerd Font;" vertex="1" parent="mhm8gVixVMm5tY4KFnyg-109">
          <mxGeometry x="80.00000000000011" width="180" height="30" as="geometry">
            <mxRectangle width="180" height="30" as="alternateBounds" />
          </mxGeometry>
        </mxCell>
        <mxCell id="mhm8gVixVMm5tY4KFnyg-112" value="" style="shape=tableRow;horizontal=0;startSize=0;swimlaneHead=0;swimlaneBody=0;fillColor=none;collapsible=0;dropTarget=0;points=[[0,0.5],[1,0.5]];portConstraint=eastwest;top=0;left=0;right=0;bottom=0;fontFamily=Mononoki Nerd Font;" vertex="1" parent="mhm8gVixVMm5tY4KFnyg-102">
          <mxGeometry y="120" width="260.0000000000001" height="30" as="geometry" />
        </mxCell>
        <mxCell id="mhm8gVixVMm5tY4KFnyg-113" value="string" style="shape=partialRectangle;connectable=0;fillColor=none;top=0;left=0;bottom=0;right=0;editable=1;overflow=hidden;whiteSpace=wrap;html=1;fontFamily=Mononoki Nerd Font;" vertex="1" parent="mhm8gVixVMm5tY4KFnyg-112">
          <mxGeometry width="80.00000000000011" height="30" as="geometry">
            <mxRectangle width="80.00000000000011" height="30" as="alternateBounds" />
          </mxGeometry>
        </mxCell>
        <mxCell id="mhm8gVixVMm5tY4KFnyg-114" value="PaymentMethod" style="shape=partialRectangle;connectable=0;fillColor=none;top=0;left=0;bottom=0;right=0;align=left;spacingLeft=6;overflow=hidden;whiteSpace=wrap;html=1;fontFamily=Mononoki Nerd Font;" vertex="1" parent="mhm8gVixVMm5tY4KFnyg-112">
          <mxGeometry x="80.00000000000011" width="180" height="30" as="geometry">
            <mxRectangle width="180" height="30" as="alternateBounds" />
          </mxGeometry>
        </mxCell>
        <mxCell id="mhm8gVixVMm5tY4KFnyg-115" style="shape=tableRow;horizontal=0;startSize=0;swimlaneHead=0;swimlaneBody=0;fillColor=none;collapsible=0;dropTarget=0;points=[[0,0.5],[1,0.5]];portConstraint=eastwest;top=0;left=0;right=0;bottom=0;fontFamily=Mononoki Nerd Font;" vertex="1" parent="mhm8gVixVMm5tY4KFnyg-102">
          <mxGeometry y="150" width="260.0000000000001" height="30" as="geometry" />
        </mxCell>
        <mxCell id="mhm8gVixVMm5tY4KFnyg-116" value="&lt;b&gt;FK&lt;/b&gt;" style="shape=partialRectangle;connectable=0;fillColor=none;top=0;left=0;bottom=0;right=0;editable=1;overflow=hidden;whiteSpace=wrap;html=1;fontFamily=Mononoki Nerd Font;" vertex="1" parent="mhm8gVixVMm5tY4KFnyg-115">
          <mxGeometry width="80.00000000000011" height="30" as="geometry">
            <mxRectangle width="80.00000000000011" height="30" as="alternateBounds" />
          </mxGeometry>
        </mxCell>
        <mxCell id="mhm8gVixVMm5tY4KFnyg-117" value="&lt;i&gt;&lt;u&gt;OrderId&lt;/u&gt;&lt;/i&gt;" style="shape=partialRectangle;connectable=0;fillColor=none;top=0;left=0;bottom=0;right=0;align=left;spacingLeft=6;overflow=hidden;whiteSpace=wrap;html=1;fontFamily=Mononoki Nerd Font;" vertex="1" parent="mhm8gVixVMm5tY4KFnyg-115">
          <mxGeometry x="80.00000000000011" width="180" height="30" as="geometry">
            <mxRectangle width="180" height="30" as="alternateBounds" />
          </mxGeometry>
        </mxCell>
        <mxCell id="mhm8gVixVMm5tY4KFnyg-123" value="" style="edgeStyle=orthogonalEdgeStyle;fontSize=12;html=1;endArrow=ERoneToMany;rounded=0;exitX=0;exitY=0.5;exitDx=0;exitDy=0;entryX=0;entryY=0.5;entryDx=0;entryDy=0;" edge="1" parent="1" source="mhm8gVixVMm5tY4KFnyg-46" target="mhm8gVixVMm5tY4KFnyg-20">
          <mxGeometry width="100" height="100" relative="1" as="geometry">
            <mxPoint x="-34" y="270" as="sourcePoint" />
            <mxPoint x="66" y="170" as="targetPoint" />
          </mxGeometry>
        </mxCell>
        <mxCell id="mhm8gVixVMm5tY4KFnyg-124" value="1" style="rounded=0;whiteSpace=wrap;html=1;strokeColor=none;fillColor=none;fontFamily=Mononoki Nerd Font;" vertex="1" parent="1">
          <mxGeometry x="26" y="310" width="10" height="10" as="geometry" />
        </mxCell>
        <mxCell id="mhm8gVixVMm5tY4KFnyg-125" value="N" style="rounded=0;whiteSpace=wrap;html=1;strokeColor=none;fillColor=none;fontFamily=Mononoki Nerd Font;" vertex="1" parent="1">
          <mxGeometry x="26" y="190" width="10" height="10" as="geometry" />
        </mxCell>
        <mxCell id="mhm8gVixVMm5tY4KFnyg-126" value="" style="edgeStyle=orthogonalEdgeStyle;fontSize=12;html=1;endArrow=ERmany;rounded=0;entryX=0;entryY=0.5;entryDx=0;entryDy=0;exitX=1;exitY=0.5;exitDx=0;exitDy=0;" edge="1" parent="1" source="mhm8gVixVMm5tY4KFnyg-2" target="mhm8gVixVMm5tY4KFnyg-99">
          <mxGeometry width="100" height="100" relative="1" as="geometry">
            <mxPoint x="216" y="210" as="sourcePoint" />
            <mxPoint x="316" y="110" as="targetPoint" />
          </mxGeometry>
        </mxCell>
        <mxCell id="mhm8gVixVMm5tY4KFnyg-127" value="1" style="rounded=0;whiteSpace=wrap;html=1;strokeColor=none;fillColor=none;fontFamily=Mononoki Nerd Font;" vertex="1" parent="1">
          <mxGeometry x="316" y="40" width="10" height="10" as="geometry" />
        </mxCell>
        <mxCell id="mhm8gVixVMm5tY4KFnyg-128" value="N" style="rounded=0;whiteSpace=wrap;html=1;strokeColor=none;fillColor=none;fontFamily=Mononoki Nerd Font;" vertex="1" parent="1">
          <mxGeometry x="366" y="210" width="10" height="10" as="geometry" />
        </mxCell>
        <mxCell id="mhm8gVixVMm5tY4KFnyg-130" value="N" style="rounded=0;whiteSpace=wrap;html=1;strokeColor=none;fillColor=none;fontFamily=Mononoki Nerd Font;" vertex="1" parent="1">
          <mxGeometry x="656" y="190" width="10" height="10" as="geometry" />
        </mxCell>
        <mxCell id="mhm8gVixVMm5tY4KFnyg-132" value="" style="edgeStyle=orthogonalEdgeStyle;fontSize=12;html=1;endArrow=ERoneToMany;rounded=0;entryX=0;entryY=0.5;entryDx=0;entryDy=0;exitX=1;exitY=0.5;exitDx=0;exitDy=0;" edge="1" parent="1" source="mhm8gVixVMm5tY4KFnyg-27" target="mhm8gVixVMm5tY4KFnyg-80">
          <mxGeometry width="100" height="100" relative="1" as="geometry">
            <mxPoint x="596" y="410" as="sourcePoint" />
            <mxPoint x="696" y="310" as="targetPoint" />
            <Array as="points">
              <mxPoint x="666" y="295" />
              <mxPoint x="666" y="415" />
            </Array>
          </mxGeometry>
        </mxCell>
        <mxCell id="mhm8gVixVMm5tY4KFnyg-133" value="" style="edgeStyle=orthogonalEdgeStyle;fontSize=12;html=1;endArrow=ERmandOne;startArrow=ERmandOne;rounded=0;exitX=1;exitY=0.5;exitDx=0;exitDy=0;" edge="1" parent="1" source="mhm8gVixVMm5tY4KFnyg-65" target="mhm8gVixVMm5tY4KFnyg-115">
          <mxGeometry width="100" height="100" relative="1" as="geometry">
            <mxPoint x="1016" y="350" as="sourcePoint" />
            <mxPoint x="886" y="310" as="targetPoint" />
          </mxGeometry>
        </mxCell>
        <mxCell id="mhm8gVixVMm5tY4KFnyg-134" value="1" style="rounded=0;whiteSpace=wrap;html=1;strokeColor=none;fillColor=none;fontFamily=Mononoki Nerd Font;" vertex="1" parent="1">
          <mxGeometry x="996" y="280" width="10" height="10" as="geometry" />
        </mxCell>
        <mxCell id="mhm8gVixVMm5tY4KFnyg-138" value="1" style="rounded=0;whiteSpace=wrap;html=1;strokeColor=none;fillColor=none;fontFamily=Mononoki Nerd Font;" vertex="1" parent="1">
          <mxGeometry x="1046" y="420" width="10" height="10" as="geometry" />
        </mxCell>
        <mxCell id="mhm8gVixVMm5tY4KFnyg-139" value="" style="edgeStyle=orthogonalEdgeStyle;fontSize=12;html=1;endArrow=ERoneToMany;rounded=0;entryX=1;entryY=0.5;entryDx=0;entryDy=0;exitX=0;exitY=0.5;exitDx=0;exitDy=0;" edge="1" parent="1" source="mhm8gVixVMm5tY4KFnyg-65" target="mhm8gVixVMm5tY4KFnyg-99">
          <mxGeometry width="100" height="100" relative="1" as="geometry">
            <mxPoint x="576" y="330" as="sourcePoint" />
            <mxPoint x="676" y="230" as="targetPoint" />
          </mxGeometry>
        </mxCell>
        <mxCell id="mhm8gVixVMm5tY4KFnyg-141" value="1" style="rounded=0;whiteSpace=wrap;html=1;strokeColor=none;fillColor=none;fontFamily=Mononoki Nerd Font;" vertex="1" parent="1">
          <mxGeometry x="706" y="300" width="10" height="10" as="geometry" />
        </mxCell>
        <mxCell id="mhm8gVixVMm5tY4KFnyg-142" value="1" style="rounded=0;whiteSpace=wrap;html=1;strokeColor=none;fillColor=none;fontFamily=Mononoki Nerd Font;" vertex="1" parent="1">
          <mxGeometry x="656" y="280" width="10" height="10" as="geometry" />
        </mxCell>
        <mxCell id="mhm8gVixVMm5tY4KFnyg-143" value="N" style="rounded=0;whiteSpace=wrap;html=1;strokeColor=none;fillColor=none;fontFamily=Mononoki Nerd Font;" vertex="1" parent="1">
          <mxGeometry x="706" y="420" width="10" height="10" as="geometry" />
        </mxCell>
      </root>
    </mxGraphModel>
  </diagram>
</mxfile>
